<svg width="32" height="32" viewBox="0 0 32 32" fill="none" xmlns="http://www.w3.org/2000/svg">
<path d="M16 7.32V27.32M29.3333 6.22667V22.32C29.3333 23.6 28.2933 24.8 27.0133 24.96L26.5733 25.0133C23.6667 25.4 19.1867 26.88 16.6267 28.2933C16.28 28.4933 15.7067 28.4933 15.3467 28.2933L15.2933 28.2667C12.7333 26.8667 8.26666 25.4 5.37333 25.0133L4.98666 24.96C3.70666 24.8 2.66666 23.6 2.66666 22.32V6.21334C2.66666 4.62667 3.96 3.42667 5.54666 3.56C8.34666 3.78667 12.5867 5.2 14.96 6.68L15.2933 6.88C15.68 7.12 16.32 7.12 16.7067 6.88L16.9333 6.73334C17.7733 6.21334 18.84 5.69334 20 5.22667V10.6667L22.6667 8.89334L25.3333 10.6667V3.70667C25.6933 3.64 26.04 3.6 26.36 3.57334H26.44C28.0267 3.44 29.3333 4.62667 29.3333 6.22667Z" stroke="#4D4D4D" stroke-width="1.5" stroke-linecap="round" stroke-linejoin="round"/>
<path d="M25.3333 3.70667V10.6667L22.6667 8.89333L20 10.6667V5.22667C21.7467 4.53333 23.6933 3.97333 25.3333 3.70667V3.70667Z" stroke="#4D4D4D" stroke-width="1.5" stroke-linecap="round" stroke-linejoin="round"/>
</svg>
