<svg width="32" height="32" viewBox="0 0 32 32" fill="none" xmlns="http://www.w3.org/2000/svg">
<path d="M16 20C17.0609 20 18.0783 19.5786 18.8284 18.8284C19.5786 18.0783 20 17.0609 20 16C20 14.9391 19.5786 13.9217 18.8284 13.1716C18.0783 12.4214 17.0609 12 16 12C14.9391 12 13.9217 12.4214 13.1716 13.1716C12.4214 13.9217 12 14.9391 12 16C12 17.0609 12.4214 18.0783 13.1716 18.8284C13.9217 19.5786 14.9391 20 16 20V20Z" stroke="#4D4D4D" stroke-width="1.5" stroke-miterlimit="10" stroke-linecap="round" stroke-linejoin="round"/>
<path d="M2.66666 17.1733V14.8267C2.66666 13.44 3.8 12.2933 5.2 12.2933C7.61333 12.2933 8.6 10.5867 7.38666 8.49333C6.69333 7.29333 7.10666 5.73333 8.32 5.04L10.6267 3.72C11.68 3.09333 13.04 3.46666 13.6667 4.52L13.8133 4.77333C15.0133 6.86666 16.9867 6.86666 18.2 4.77333L18.3467 4.52C18.9733 3.46666 20.3333 3.09333 21.3867 3.72L23.6933 5.04C24.9067 5.73333 25.32 7.29333 24.6267 8.49333C23.4133 10.5867 24.4 12.2933 26.8133 12.2933C28.2 12.2933 29.3467 13.4267 29.3467 14.8267V17.1733C29.3467 18.56 28.2133 19.7067 26.8133 19.7067C24.4 19.7067 23.4133 21.4133 24.6267 23.5067C25.32 24.72 24.9067 26.2667 23.6933 26.96L21.3867 28.28C20.3333 28.9067 18.9733 28.5333 18.3467 27.48L18.2 27.2267C17 25.1333 15.0267 25.1333 13.8133 27.2267L13.6667 27.48C13.04 28.5333 11.68 28.9067 10.6267 28.28L8.32 26.96C7.7388 26.6253 7.31411 26.0738 7.13912 25.4264C6.96414 24.7789 7.05317 24.0885 7.38666 23.5067C8.6 21.4133 7.61333 19.7067 5.2 19.7067C3.8 19.7067 2.66666 18.56 2.66666 17.1733V17.1733Z" stroke="#4D4D4D" stroke-width="1.5" stroke-miterlimit="10" stroke-linecap="round" stroke-linejoin="round"/>
</svg>
