<svg width="24" height="24" viewBox="0 0 24 24" fill="none" xmlns="http://www.w3.org/2000/svg">
<path d="M13.0601 10.94C13.595 11.4732 14.0193 12.1068 14.3089 12.8043C14.5985 13.5019 14.7475 14.2497 14.7475 15.005C14.7475 15.7603 14.5985 16.5081 14.3089 17.2057C14.0193 17.9032 13.595 18.5368 13.0601 19.07C10.8101 21.31 7.17009 21.32 4.93009 19.07C2.69009 16.82 2.68009 13.18 4.93009 10.94" stroke="#4D4D4D" stroke-width="1.5" stroke-linecap="round" stroke-linejoin="round"/>
<path d="M10.59 13.41C8.24996 11.07 8.24996 7.27001 10.59 4.92001C12.93 2.57001 16.73 2.58001 19.08 4.92001C21.43 7.26001 21.42 11.06 19.08 13.41" stroke="#4D4D4D" stroke-width="1.5" stroke-linecap="round" stroke-linejoin="round"/>
</svg>
